<svg xmlns="http://www.w3.org/2000/svg" xmlns:xlink="http://www.w3.org/1999/xlink" width="500" zoomAndPan="magnify" viewBox="0 0 375 374.999991" height="500" preserveAspectRatio="xMidYMid meet" version="1.0"><defs><g/><clipPath id="3a14effd82"><path d="M 304.511719 140.046875 L 322 140.046875 L 322 252 L 304.511719 252 Z M 304.511719 140.046875 " clip-rule="nonzero"/></clipPath><clipPath id="6140553299"><path d="M 304.511719 140.046875 L 322.511719 140.046875 L 322.511719 252 L 304.511719 252 Z M 304.511719 140.046875 " clip-rule="nonzero"/></clipPath><clipPath id="be8722a9ee"><path d="M 52.847656 79 L 209 79 L 209 152 L 52.847656 152 Z M 52.847656 79 " clip-rule="nonzero"/></clipPath><clipPath id="526cc8bf28"><path d="M 182 67 L 322.097656 67 L 322.097656 152.75 L 182 152.75 Z M 182 67 " clip-rule="nonzero"/></clipPath><clipPath id="17fb8a965f"><path d="M 232 240 L 323 240 L 323 313 L 232 313 Z M 232 240 " clip-rule="nonzero"/></clipPath><clipPath id="746f70a3a8"><path d="M 232.28125 299.699219 L 312.367188 240.230469 L 322.203125 253.480469 L 242.117188 312.945312 Z M 232.28125 299.699219 " clip-rule="nonzero"/></clipPath><clipPath id="1110b22f6f"><path d="M 232.28125 299.699219 L 312.367188 240.230469 L 322.203125 253.480469 L 242.117188 312.945312 Z M 232.28125 299.699219 " clip-rule="nonzero"/></clipPath><clipPath id="68e502f1ab"><path d="M 232.28125 299.699219 L 312.367188 240.230469 L 322.203125 253.480469 L 242.117188 312.945312 Z M 232.28125 299.699219 " clip-rule="nonzero"/></clipPath></defs><rect x="-37.5" width="450" fill="#ffffff" y="-37.499999" height="449.999989" fill-opacity="1"/><rect x="-37.5" width="450" fill="#ffffff" y="-37.499999" height="449.999989" fill-opacity="1"/><rect x="-37.5" width="450" fill="#df712d" y="-37.499999" height="449.999989" fill-opacity="1"/><g clip-path="url(#3a14effd82)"><path fill="#ffffff" d="M 304.671875 251.835938 L 304.671875 140.464844 L 321.984375 140.464844 L 321.984375 251.835938 Z M 304.671875 251.835938 " fill-opacity="1" fill-rule="nonzero"/></g><g clip-path="url(#6140553299)"><path fill="#ffffff" d="M 304.511719 252 L 322.148438 252 L 322.148438 140.300781 L 304.511719 140.300781 Z M 321.820312 140.625 L 321.820312 251.671875 L 304.835938 251.671875 L 304.835938 140.625 Z M 321.820312 140.625 " fill-opacity="1" fill-rule="nonzero"/></g><path fill="#ffffff" d="M 192.527344 113.90625 L 202.855469 113.90625 L 202.855469 124.238281 L 192.527344 124.238281 Z M 192.527344 113.90625 " fill-opacity="1" fill-rule="nonzero"/><path fill="#ffffff" d="M 192.527344 126.714844 L 202.855469 126.714844 L 202.855469 137.042969 L 192.527344 137.042969 Z M 192.527344 126.714844 " fill-opacity="1" fill-rule="nonzero"/><path fill="#ffffff" d="M 205.757812 113.90625 L 216.085938 113.90625 L 216.085938 124.238281 L 205.757812 124.238281 Z M 205.757812 113.90625 " fill-opacity="1" fill-rule="nonzero"/><path fill="#ffffff" d="M 205.757812 126.714844 L 216.085938 126.714844 L 216.085938 137.042969 L 205.757812 137.042969 Z M 205.757812 126.714844 " fill-opacity="1" fill-rule="nonzero"/><g clip-path="url(#be8722a9ee)"><path fill="#ffffff" d="M 137.539062 130.726562 C 194.808594 125.917969 208.25 91.214844 208.25 91.214844 C 146.507812 67.90625 134.039062 102.710938 131.667969 121.40625 C 130.09375 101.722656 118.808594 64.617188 52.945312 85.980469 C 52.945312 85.980469 65.324219 122.980469 125.035156 130.835938 C 125.035156 130.835938 120.367188 105.824219 96.683594 98.628906 C 101.742188 101.882812 116.847656 112.527344 118.597656 125.03125 C 118.597656 125.03125 74.363281 120.753906 58.074219 88.085938 C 58.074219 88.085938 123.585938 62 129.757812 126.730469 C 129.828125 128.746094 130.304688 130.445312 130.765625 132.035156 C 130.941406 132.636719 131.121094 133.238281 131.277344 133.839844 C 131.984375 136.492188 136.636719 151.296875 153.261719 151.207031 C 152.253906 151.191406 144.933594 150.800781 138.265625 142.101562 C 138.230469 142.066406 138.210938 142.03125 138.175781 141.976562 C 132.976562 135.132812 132.800781 125.742188 137.609375 118.613281 C 153.441406 95.195312 181.492188 100.253906 181.492188 100.253906 C 135.398438 102.996094 137.539062 130.726562 137.539062 130.726562 Z M 137.539062 130.726562 " fill-opacity="1" fill-rule="nonzero"/></g><g clip-path="url(#526cc8bf28)"><path fill="#ffffff" d="M 251.5625 94.046875 L 252.289062 74.503906 L 236.441406 73.917969 L 236.035156 85.042969 L 221.867188 76.835938 L 206.375 67.816406 L 190.492188 76.925781 L 182.835938 81.3125 C 189.359375 82.195312 196.71875 83.964844 205.03125 86.832031 L 206.304688 86.105469 L 321.25 152.890625 L 322.042969 134.882812 Z M 251.5625 94.046875 " fill-opacity="1" fill-rule="nonzero"/></g><g clip-path="url(#17fb8a965f)"><g clip-path="url(#746f70a3a8)"><g clip-path="url(#1110b22f6f)"><g clip-path="url(#68e502f1ab)"><path fill="#ffffff" d="M 232.359375 299.644531 L 272.324219 269.972656 L 312.289062 240.296875 C 315.570312 244.714844 318.847656 249.132812 322.128906 253.550781 C 295.488281 273.335938 268.84375 293.117188 242.203125 312.898438 C 238.921875 308.480469 235.640625 304.0625 232.359375 299.644531 " fill-opacity="1" fill-rule="nonzero"/></g></g></g></g><g fill="#ffffff" fill-opacity="1"><g transform="translate(52.846357, 203.45655)"><g><path d="M 41.765625 0 L 39.5625 -27.515625 L 39.28125 -27.515625 L 29.765625 -0.28125 L 23.46875 -0.28125 L 13.953125 -27.515625 L 13.671875 -27.515625 L 11.484375 0 L 0.90625 0 L 5.0625 -46.4375 L 16.328125 -46.4375 L 26.625 -19.640625 L 36.921875 -46.4375 L 48.171875 -46.4375 L 52.34375 0 Z M 41.765625 0 "/></g></g></g><g fill="#ffffff" fill-opacity="1"><g transform="translate(103.272154, 203.45655)"><g><path d="M 5.34375 -3.5625 C 2.644531 -6.507812 1.296875 -10.125 1.296875 -14.40625 C 1.296875 -18.6875 2.644531 -22.304688 5.34375 -25.265625 C 8.050781 -28.234375 11.484375 -29.71875 15.640625 -29.71875 C 19.472656 -29.71875 22.625 -28.515625 25.09375 -26.109375 L 25.09375 -28.875 L 35.0625 -28.875 L 35.0625 0 L 25.21875 0 L 25.21875 -3.265625 L 25.09375 -3.265625 C 22.625 -0.523438 19.472656 0.84375 15.640625 0.84375 C 11.484375 0.84375 8.050781 -0.625 5.34375 -3.5625 Z M 13.8125 -19.296875 C 12.519531 -18.023438 11.875 -16.394531 11.875 -14.40625 C 11.875 -12.414062 12.492188 -10.789062 13.734375 -9.53125 C 14.972656 -8.28125 16.601562 -7.65625 18.625 -7.65625 C 20.582031 -7.65625 22.1875 -8.289062 23.4375 -9.5625 C 24.695312 -10.84375 25.328125 -12.457031 25.328125 -14.40625 C 25.328125 -16.394531 24.675781 -18.023438 23.375 -19.296875 C 22.082031 -20.578125 20.5 -21.21875 18.625 -21.21875 C 16.71875 -21.21875 15.113281 -20.578125 13.8125 -19.296875 Z M 13.8125 -19.296875 "/></g></g></g><g fill="#ffffff" fill-opacity="1"><g transform="translate(138.896505, 203.45655)"><g><path d="M 3.375 0 L 3.375 -28.875 L 13.34375 -28.875 L 13.34375 -25.828125 L 13.453125 -25.828125 C 16.035156 -28.421875 18.789062 -29.71875 21.71875 -29.71875 C 23.144531 -29.71875 24.5625 -29.53125 25.96875 -29.15625 C 27.375 -28.78125 28.722656 -28.195312 30.015625 -27.40625 C 31.316406 -26.625 32.367188 -25.507812 33.171875 -24.0625 C 33.984375 -22.613281 34.390625 -20.929688 34.390625 -19.015625 L 34.390625 0 L 24.421875 0 L 24.421875 -16.328125 C 24.421875 -17.828125 23.941406 -19.140625 22.984375 -20.265625 C 22.035156 -21.390625 20.789062 -21.953125 19.25 -21.953125 C 17.75 -21.953125 16.390625 -21.367188 15.171875 -20.203125 C 13.953125 -19.035156 13.34375 -17.742188 13.34375 -16.328125 L 13.34375 0 Z M 3.375 0 "/></g></g></g><g fill="#ffffff" fill-opacity="1"><g transform="translate(173.282709, 203.45655)"><g><path d="M 5.34375 -3.5625 C 2.644531 -6.507812 1.296875 -10.125 1.296875 -14.40625 C 1.296875 -18.6875 2.644531 -22.304688 5.34375 -25.265625 C 8.050781 -28.234375 11.484375 -29.71875 15.640625 -29.71875 C 19.472656 -29.71875 22.625 -28.515625 25.09375 -26.109375 L 25.09375 -48.40625 L 35.0625 -48.40625 L 35.0625 0 L 25.21875 0 L 25.21875 -3.265625 L 25.09375 -3.265625 C 22.625 -0.523438 19.472656 0.84375 15.640625 0.84375 C 11.484375 0.84375 8.050781 -0.625 5.34375 -3.5625 Z M 13.8125 -19.296875 C 12.519531 -18.023438 11.875 -16.394531 11.875 -14.40625 C 11.875 -12.414062 12.492188 -10.789062 13.734375 -9.53125 C 14.972656 -8.28125 16.601562 -7.65625 18.625 -7.65625 C 20.582031 -7.65625 22.1875 -8.289062 23.4375 -9.5625 C 24.695312 -10.84375 25.328125 -12.457031 25.328125 -14.40625 C 25.328125 -16.394531 24.675781 -18.023438 23.375 -19.296875 C 22.082031 -20.578125 20.5 -21.21875 18.625 -21.21875 C 16.71875 -21.21875 15.113281 -20.578125 13.8125 -19.296875 Z M 13.8125 -19.296875 "/></g></g></g><g fill="#ffffff" fill-opacity="1"><g transform="translate(208.907059, 203.45655)"><g><path d="M 32.59375 -13.0625 L 11.65625 -13.0625 C 11.65625 -11.03125 12.3125 -9.523438 13.625 -8.546875 C 14.9375 -7.578125 16.359375 -7.09375 17.890625 -7.09375 C 19.503906 -7.09375 20.78125 -7.304688 21.71875 -7.734375 C 22.65625 -8.171875 23.726562 -9.023438 24.9375 -10.296875 L 32.140625 -6.703125 C 29.140625 -1.671875 24.148438 0.84375 17.171875 0.84375 C 12.816406 0.84375 9.082031 -0.644531 5.96875 -3.625 C 2.851562 -6.613281 1.296875 -10.207031 1.296875 -14.40625 C 1.296875 -18.613281 2.851562 -22.21875 5.96875 -25.21875 C 9.082031 -28.21875 12.816406 -29.71875 17.171875 -29.71875 C 21.742188 -29.71875 25.460938 -28.394531 28.328125 -25.75 C 31.203125 -23.101562 32.640625 -19.320312 32.640625 -14.40625 C 32.640625 -13.726562 32.625 -13.28125 32.59375 -13.0625 Z M 11.9375 -18.578125 L 22.90625 -18.578125 C 22.675781 -20.078125 22.082031 -21.226562 21.125 -22.03125 C 20.175781 -22.84375 18.953125 -23.25 17.453125 -23.25 C 15.796875 -23.25 14.476562 -22.816406 13.5 -21.953125 C 12.53125 -21.085938 12.007812 -19.960938 11.9375 -18.578125 Z M 11.9375 -18.578125 "/></g></g></g><g fill="#ffffff" fill-opacity="1"><g transform="translate(240.02907, 203.45655)"><g><path d="M 3.375 0 L 3.375 -48.40625 L 13.34375 -48.40625 L 13.34375 0 Z M 3.375 0 "/></g></g></g><g fill="#ffffff" fill-opacity="1"><g transform="translate(253.929611, 203.45655)"><g><path d="M 5.34375 -3.5625 C 2.644531 -6.507812 1.296875 -10.125 1.296875 -14.40625 C 1.296875 -18.6875 2.644531 -22.304688 5.34375 -25.265625 C 8.050781 -28.234375 11.484375 -29.71875 15.640625 -29.71875 C 19.472656 -29.71875 22.625 -28.515625 25.09375 -26.109375 L 25.09375 -28.875 L 35.0625 -28.875 L 35.0625 0 L 25.21875 0 L 25.21875 -3.265625 L 25.09375 -3.265625 C 22.625 -0.523438 19.472656 0.84375 15.640625 0.84375 C 11.484375 0.84375 8.050781 -0.625 5.34375 -3.5625 Z M 13.8125 -19.296875 C 12.519531 -18.023438 11.875 -16.394531 11.875 -14.40625 C 11.875 -12.414062 12.492188 -10.789062 13.734375 -9.53125 C 14.972656 -8.28125 16.601562 -7.65625 18.625 -7.65625 C 20.582031 -7.65625 22.1875 -8.289062 23.4375 -9.5625 C 24.695312 -10.84375 25.328125 -12.457031 25.328125 -14.40625 C 25.328125 -16.394531 24.675781 -18.023438 23.375 -19.296875 C 22.082031 -20.578125 20.5 -21.21875 18.625 -21.21875 C 16.71875 -21.21875 15.113281 -20.578125 13.8125 -19.296875 Z M 13.8125 -19.296875 "/></g></g></g><g fill="#ffffff" fill-opacity="1"><g transform="translate(52.846357, 256.267467)"><g><path d="M 20.484375 -47.28125 C 22.992188 -47.28125 25.453125 -46.910156 27.859375 -46.171875 C 30.265625 -45.441406 32.046875 -44.722656 33.203125 -44.015625 L 34.890625 -42.890625 L 30.609375 -34.4375 C 30.273438 -34.664062 29.804688 -34.957031 29.203125 -35.3125 C 28.609375 -35.664062 27.484375 -36.144531 25.828125 -36.75 C 24.179688 -37.351562 22.644531 -37.65625 21.21875 -37.65625 C 19.457031 -37.65625 18.097656 -37.28125 17.140625 -36.53125 C 16.179688 -35.78125 15.703125 -34.765625 15.703125 -33.484375 C 15.703125 -32.847656 15.925781 -32.257812 16.375 -31.71875 C 16.820312 -31.175781 17.585938 -30.59375 18.671875 -29.96875 C 19.765625 -29.351562 20.722656 -28.859375 21.546875 -28.484375 C 22.378906 -28.109375 23.660156 -27.546875 25.390625 -26.796875 C 28.390625 -25.515625 30.945312 -23.773438 33.0625 -21.578125 C 35.1875 -19.390625 36.25 -16.90625 36.25 -14.125 C 36.25 -11.457031 35.769531 -9.128906 34.8125 -7.140625 C 33.851562 -5.160156 32.535156 -3.601562 30.859375 -2.46875 C 29.191406 -1.34375 27.34375 -0.507812 25.3125 0.03125 C 23.289062 0.570312 21.097656 0.84375 18.734375 0.84375 C 16.710938 0.84375 14.722656 0.632812 12.765625 0.21875 C 10.816406 -0.1875 9.1875 -0.695312 7.875 -1.3125 C 6.5625 -1.9375 5.378906 -2.546875 4.328125 -3.140625 C 3.273438 -3.742188 2.507812 -4.253906 2.03125 -4.671875 L 1.296875 -5.296875 L 6.578125 -14.1875 C 7.035156 -13.8125 7.65625 -13.332031 8.4375 -12.75 C 9.226562 -12.164062 10.625 -11.382812 12.625 -10.40625 C 14.632812 -9.4375 16.410156 -8.953125 17.953125 -8.953125 C 22.421875 -8.953125 24.65625 -10.46875 24.65625 -13.5 C 24.65625 -14.144531 24.492188 -14.738281 24.171875 -15.28125 C 23.847656 -15.820312 23.285156 -16.363281 22.484375 -16.90625 C 21.679688 -17.457031 20.96875 -17.890625 20.34375 -18.203125 C 19.726562 -18.523438 18.71875 -19.015625 17.3125 -19.671875 C 15.90625 -20.328125 14.863281 -20.820312 14.1875 -21.15625 C 11.375 -22.550781 9.195312 -24.285156 7.65625 -26.359375 C 6.113281 -28.441406 5.34375 -30.6875 5.34375 -33.09375 C 5.34375 -37.257812 6.878906 -40.664062 9.953125 -43.3125 C 13.035156 -45.957031 16.546875 -47.28125 20.484375 -47.28125 Z M 20.484375 -47.28125 "/></g></g></g><g fill="#ffffff" fill-opacity="1"><g transform="translate(87.85164, 256.267467)"><g><path d="M 3.375 0 L 3.375 -48.40625 L 13.34375 -48.40625 L 13.34375 -25.828125 L 13.453125 -25.828125 C 16.035156 -28.421875 18.789062 -29.71875 21.71875 -29.71875 C 23.144531 -29.71875 24.5625 -29.53125 25.96875 -29.15625 C 27.375 -28.78125 28.722656 -28.195312 30.015625 -27.40625 C 31.316406 -26.625 32.367188 -25.507812 33.171875 -24.0625 C 33.984375 -22.613281 34.390625 -20.929688 34.390625 -19.015625 L 34.390625 0 L 24.421875 0 L 24.421875 -16.328125 C 24.421875 -17.828125 23.941406 -19.140625 22.984375 -20.265625 C 22.035156 -21.390625 20.789062 -21.953125 19.25 -21.953125 C 17.75 -21.953125 16.390625 -21.367188 15.171875 -20.203125 C 13.953125 -19.035156 13.34375 -17.742188 13.34375 -16.328125 L 13.34375 0 Z M 3.375 0 "/></g></g></g><g fill="#ffffff" fill-opacity="1"><g transform="translate(122.237845, 256.267467)"><g><path d="M 6.109375 -3.421875 C 2.898438 -6.273438 1.296875 -9.9375 1.296875 -14.40625 C 1.296875 -18.875 2.960938 -22.539062 6.296875 -25.40625 C 9.640625 -28.28125 13.769531 -29.71875 18.6875 -29.71875 C 23.53125 -29.71875 27.609375 -28.269531 30.921875 -25.375 C 34.242188 -22.488281 35.90625 -18.832031 35.90625 -14.40625 C 35.90625 -9.976562 34.28125 -6.328125 31.03125 -3.453125 C 27.789062 -0.585938 23.675781 0.84375 18.6875 0.84375 C 13.507812 0.84375 9.316406 -0.578125 6.109375 -3.421875 Z M 13.8125 -19.296875 C 12.519531 -18.023438 11.875 -16.394531 11.875 -14.40625 C 11.875 -12.414062 12.492188 -10.789062 13.734375 -9.53125 C 14.972656 -8.28125 16.601562 -7.65625 18.625 -7.65625 C 20.582031 -7.65625 22.1875 -8.289062 23.4375 -9.5625 C 24.695312 -10.84375 25.328125 -12.457031 25.328125 -14.40625 C 25.328125 -16.394531 24.675781 -18.023438 23.375 -19.296875 C 22.082031 -20.578125 20.5 -21.21875 18.625 -21.21875 C 16.71875 -21.21875 15.113281 -20.578125 13.8125 -19.296875 Z M 13.8125 -19.296875 "/></g></g></g><g fill="#ffffff" fill-opacity="1"><g transform="translate(156.624049, 256.267467)"><g><path d="M 33.09375 -25.296875 C 35.789062 -22.347656 37.140625 -18.734375 37.140625 -14.453125 C 37.140625 -10.179688 35.789062 -6.5625 33.09375 -3.59375 C 30.394531 -0.632812 26.960938 0.84375 22.796875 0.84375 C 18.960938 0.84375 15.8125 -0.351562 13.34375 -2.75 L 13.34375 14.640625 L 3.375 14.640625 L 3.375 -28.875 L 13.21875 -28.875 L 13.21875 -25.609375 L 13.34375 -25.609375 C 15.8125 -28.347656 18.960938 -29.71875 22.796875 -29.71875 C 26.960938 -29.71875 30.394531 -28.242188 33.09375 -25.296875 Z M 24.625 -9.5625 C 25.914062 -10.84375 26.5625 -12.476562 26.5625 -14.46875 C 26.5625 -16.457031 25.941406 -18.078125 24.703125 -19.328125 C 23.460938 -20.585938 21.832031 -21.21875 19.8125 -21.21875 C 17.863281 -21.21875 16.257812 -20.578125 15 -19.296875 C 13.738281 -18.023438 13.109375 -16.414062 13.109375 -14.46875 C 13.109375 -12.476562 13.753906 -10.84375 15.046875 -9.5625 C 16.347656 -8.289062 17.9375 -7.65625 19.8125 -7.65625 C 21.726562 -7.65625 23.332031 -8.289062 24.625 -9.5625 Z M 24.625 -9.5625 "/></g></g></g><g fill="#ffffff" fill-opacity="1"><g transform="translate(53.445839, 270.050186)"><g><path d="M 3.953125 0 L 0.390625 0 C 0.335938 0 0.3125 -0.0234375 0.3125 -0.078125 L 0.3125 -0.40625 C 0.3125 -0.457031 0.335938 -0.484375 0.390625 -0.484375 L 0.890625 -0.484375 L 0.890625 -4.171875 L 0.390625 -4.171875 C 0.335938 -4.171875 0.3125 -4.195312 0.3125 -4.25 L 0.3125 -4.59375 C 0.3125 -4.644531 0.335938 -4.671875 0.390625 -4.671875 L 1.953125 -4.671875 C 2.003906 -4.671875 2.03125 -4.640625 2.03125 -4.578125 L 2.03125 -4.265625 C 2.03125 -4.203125 2.003906 -4.171875 1.953125 -4.171875 L 1.453125 -4.171875 L 1.453125 -0.484375 L 3.515625 -0.484375 L 3.515625 -1.125 C 3.515625 -1.175781 3.546875 -1.203125 3.609375 -1.203125 L 3.953125 -1.203125 C 4.003906 -1.203125 4.03125 -1.175781 4.03125 -1.125 L 4.03125 -0.078125 C 4.03125 -0.0234375 4.003906 0 3.953125 0 Z M 3.953125 0 "/></g></g></g><g fill="#ffffff" fill-opacity="1"><g transform="translate(58.125887, 270.050186)"><g><path d="M 3.25 0 L 1.6875 0 C 1.632812 0 1.609375 -0.0234375 1.609375 -0.078125 L 1.609375 -0.40625 C 1.609375 -0.457031 1.632812 -0.484375 1.6875 -0.484375 L 2.1875 -0.484375 L 2.1875 -1.875 L 1.921875 -2.328125 C 1.359375 -3.328125 1 -3.941406 0.84375 -4.171875 L 0.390625 -4.171875 C 0.335938 -4.171875 0.3125 -4.195312 0.3125 -4.25 L 0.3125 -4.59375 C 0.3125 -4.644531 0.335938 -4.671875 0.390625 -4.671875 L 1.859375 -4.671875 C 1.910156 -4.671875 1.9375 -4.644531 1.9375 -4.59375 L 1.9375 -4.25 C 1.9375 -4.195312 1.910156 -4.171875 1.859375 -4.171875 L 1.4375 -4.171875 L 2.453125 -2.375 L 2.484375 -2.375 L 3.5 -4.171875 L 3.078125 -4.171875 C 3.023438 -4.171875 3 -4.195312 3 -4.25 L 3 -4.59375 C 3 -4.644531 3.023438 -4.671875 3.078125 -4.671875 L 4.546875 -4.671875 C 4.597656 -4.671875 4.625 -4.644531 4.625 -4.59375 L 4.625 -4.25 C 4.625 -4.195312 4.597656 -4.171875 4.546875 -4.171875 L 4.09375 -4.171875 C 3.882812 -3.867188 3.609375 -3.410156 3.265625 -2.796875 C 2.921875 -2.191406 2.75 -1.890625 2.75 -1.890625 L 2.75 -0.484375 L 3.25 -0.484375 C 3.300781 -0.484375 3.328125 -0.457031 3.328125 -0.40625 L 3.328125 -0.078125 C 3.328125 -0.0234375 3.300781 0 3.25 0 Z M 3.25 0 "/></g></g></g><g fill="#ffffff" fill-opacity="1"><g transform="translate(63.384443, 270.050186)"><g><path d="M 4.53125 -1.171875 C 4.550781 -1.160156 4.5625 -1.140625 4.5625 -1.109375 C 4.5625 -1.085938 4.550781 -1.054688 4.53125 -1.015625 C 4.507812 -0.972656 4.476562 -0.914062 4.4375 -0.84375 C 4.394531 -0.78125 4.3125 -0.691406 4.1875 -0.578125 C 4.070312 -0.460938 3.941406 -0.363281 3.796875 -0.28125 C 3.660156 -0.195312 3.476562 -0.117188 3.25 -0.046875 C 3.03125 0.015625 2.789062 0.046875 2.53125 0.046875 C 1.894531 0.046875 1.363281 -0.171875 0.9375 -0.609375 C 0.519531 -1.054688 0.3125 -1.640625 0.3125 -2.359375 C 0.3125 -3.078125 0.523438 -3.644531 0.953125 -4.0625 C 1.378906 -4.488281 1.894531 -4.703125 2.5 -4.703125 C 3.164062 -4.703125 3.648438 -4.472656 3.953125 -4.015625 L 3.953125 -4.59375 C 3.941406 -4.644531 3.96875 -4.671875 4.03125 -4.671875 L 4.390625 -4.671875 C 4.453125 -4.671875 4.484375 -4.644531 4.484375 -4.59375 L 4.484375 -3.171875 C 4.484375 -3.117188 4.453125 -3.09375 4.390625 -3.09375 L 3.984375 -3.09375 C 3.929688 -3.09375 3.90625 -3.117188 3.90625 -3.171875 L 3.90625 -3.234375 C 3.90625 -3.429688 3.769531 -3.632812 3.5 -3.84375 C 3.226562 -4.0625 2.890625 -4.171875 2.484375 -4.171875 C 2.085938 -4.171875 1.726562 -4.007812 1.40625 -3.6875 C 1.082031 -3.375 0.921875 -2.925781 0.921875 -2.34375 C 0.921875 -1.757812 1.082031 -1.304688 1.40625 -0.984375 C 1.726562 -0.660156 2.109375 -0.5 2.546875 -0.5 C 3.015625 -0.5 3.390625 -0.601562 3.671875 -0.8125 C 3.878906 -0.976562 4.035156 -1.144531 4.140625 -1.3125 C 4.171875 -1.382812 4.207031 -1.398438 4.25 -1.359375 Z M 4.53125 -1.171875 "/></g></g></g><g fill="#ffffff" fill-opacity="1"><g transform="translate(68.597498, 270.050186)"><g><path d="M 2.546875 -6.4375 C 2.566406 -6.457031 2.585938 -6.46875 2.609375 -6.46875 C 2.628906 -6.46875 2.648438 -6.453125 2.671875 -6.421875 L 2.875 -6.1875 C 2.90625 -6.132812 2.898438 -6.09375 2.859375 -6.0625 L 1.78125 -5.1875 C 1.726562 -5.15625 1.6875 -5.160156 1.65625 -5.203125 L 1.484375 -5.390625 C 1.453125 -5.441406 1.457031 -5.484375 1.5 -5.515625 Z M 3.84375 0 L 0.390625 0 C 0.335938 0 0.3125 -0.0234375 0.3125 -0.078125 L 0.3125 -0.40625 C 0.3125 -0.457031 0.335938 -0.484375 0.390625 -0.484375 L 0.890625 -0.484375 L 0.890625 -4.171875 L 0.390625 -4.171875 C 0.335938 -4.171875 0.3125 -4.195312 0.3125 -4.25 L 0.3125 -4.59375 C 0.3125 -4.644531 0.335938 -4.671875 0.390625 -4.671875 L 3.84375 -4.671875 C 3.90625 -4.671875 3.9375 -4.644531 3.9375 -4.59375 L 3.9375 -3.546875 C 3.9375 -3.484375 3.90625 -3.453125 3.84375 -3.453125 L 3.5 -3.453125 C 3.445312 -3.453125 3.421875 -3.484375 3.421875 -3.546875 L 3.421875 -4.171875 L 1.453125 -4.171875 L 1.453125 -2.5625 L 3.09375 -2.5625 C 3.15625 -2.5625 3.1875 -2.535156 3.1875 -2.484375 L 3.1875 -2.15625 C 3.1875 -2.101562 3.15625 -2.078125 3.09375 -2.078125 L 1.453125 -2.078125 L 1.453125 -0.484375 L 3.40625 -0.484375 L 3.40625 -1.125 C 3.40625 -1.175781 3.4375 -1.203125 3.5 -1.203125 L 3.84375 -1.203125 C 3.90625 -1.203125 3.9375 -1.175781 3.9375 -1.125 L 3.9375 -0.078125 C 3.9375 -0.0234375 3.90625 0 3.84375 0 Z M 3.84375 0 "/></g></g></g><g fill="#ffffff" fill-opacity="1"><g transform="translate(73.167049, 270.050186)"><g><path d="M 3.84375 0 L 0.390625 0 C 0.335938 0 0.3125 -0.0234375 0.3125 -0.078125 L 0.3125 -0.40625 C 0.3125 -0.457031 0.335938 -0.484375 0.390625 -0.484375 L 0.890625 -0.484375 L 0.890625 -4.171875 L 0.390625 -4.171875 C 0.335938 -4.171875 0.3125 -4.195312 0.3125 -4.25 L 0.3125 -4.59375 C 0.3125 -4.644531 0.335938 -4.671875 0.390625 -4.671875 L 3.84375 -4.671875 C 3.90625 -4.671875 3.9375 -4.644531 3.9375 -4.59375 L 3.9375 -3.546875 C 3.9375 -3.484375 3.90625 -3.453125 3.84375 -3.453125 L 3.5 -3.453125 C 3.445312 -3.453125 3.421875 -3.484375 3.421875 -3.546875 L 3.421875 -4.171875 L 1.453125 -4.171875 L 1.453125 -2.5625 L 3.09375 -2.5625 C 3.15625 -2.5625 3.1875 -2.535156 3.1875 -2.484375 L 3.1875 -2.15625 C 3.1875 -2.101562 3.15625 -2.078125 3.09375 -2.078125 L 1.453125 -2.078125 L 1.453125 -0.484375 L 3.40625 -0.484375 L 3.40625 -1.125 C 3.40625 -1.175781 3.4375 -1.203125 3.5 -1.203125 L 3.84375 -1.203125 C 3.90625 -1.203125 3.9375 -1.175781 3.9375 -1.125 L 3.9375 -0.078125 C 3.9375 -0.0234375 3.90625 0 3.84375 0 Z M 3.84375 0 "/></g></g></g><g fill="#ffffff" fill-opacity="1"><g transform="translate(77.736599, 270.050186)"><g/></g></g><g fill="#ffffff" fill-opacity="1"><g transform="translate(80.096122, 270.050186)"><g><path d="M 4.359375 0 L 4 0 C 3.914062 0 3.847656 -0.015625 3.796875 -0.046875 C 3.753906 -0.078125 3.710938 -0.128906 3.671875 -0.203125 L 1.796875 -3.140625 L 1.46875 -3.6875 L 1.453125 -3.6875 L 1.453125 -0.484375 L 1.953125 -0.484375 C 2.015625 -0.484375 2.046875 -0.457031 2.046875 -0.40625 L 2.046875 -0.078125 C 2.046875 -0.0234375 2.015625 0 1.953125 0 L 0.390625 0 C 0.335938 0 0.3125 -0.0234375 0.3125 -0.078125 L 0.3125 -0.40625 C 0.3125 -0.457031 0.335938 -0.484375 0.390625 -0.484375 L 0.890625 -0.484375 L 0.890625 -4.171875 L 0.390625 -4.171875 C 0.335938 -4.171875 0.3125 -4.195312 0.3125 -4.25 L 0.3125 -4.59375 C 0.3125 -4.644531 0.335938 -4.671875 0.390625 -4.671875 L 1.3125 -4.671875 C 1.4375 -4.671875 1.546875 -4.597656 1.640625 -4.453125 L 3.484375 -1.546875 L 3.859375 -0.921875 L 3.875 -0.921875 L 3.875 -4.171875 L 3.375 -4.171875 C 3.320312 -4.171875 3.296875 -4.195312 3.296875 -4.25 L 3.296875 -4.59375 C 3.296875 -4.644531 3.320312 -4.671875 3.375 -4.671875 L 4.9375 -4.671875 C 4.988281 -4.671875 5.015625 -4.644531 5.015625 -4.59375 L 5.015625 -4.25 C 5.015625 -4.195312 4.988281 -4.171875 4.9375 -4.171875 L 4.4375 -4.171875 L 4.4375 -0.078125 C 4.4375 -0.0234375 4.410156 0 4.359375 0 Z M 4.359375 0 "/></g></g></g><g fill="#ffffff" fill-opacity="1"><g transform="translate(85.751184, 270.050186)"><g><path d="M 3.84375 0 L 0.390625 0 C 0.335938 0 0.3125 -0.0234375 0.3125 -0.078125 L 0.3125 -0.40625 C 0.3125 -0.457031 0.335938 -0.484375 0.390625 -0.484375 L 0.890625 -0.484375 L 0.890625 -4.171875 L 0.390625 -4.171875 C 0.335938 -4.171875 0.3125 -4.195312 0.3125 -4.25 L 0.3125 -4.59375 C 0.3125 -4.644531 0.335938 -4.671875 0.390625 -4.671875 L 3.84375 -4.671875 C 3.90625 -4.671875 3.9375 -4.644531 3.9375 -4.59375 L 3.9375 -3.546875 C 3.9375 -3.484375 3.90625 -3.453125 3.84375 -3.453125 L 3.5 -3.453125 C 3.445312 -3.453125 3.421875 -3.484375 3.421875 -3.546875 L 3.421875 -4.171875 L 1.453125 -4.171875 L 1.453125 -2.5625 L 3.09375 -2.5625 C 3.15625 -2.5625 3.1875 -2.535156 3.1875 -2.484375 L 3.1875 -2.15625 C 3.1875 -2.101562 3.15625 -2.078125 3.09375 -2.078125 L 1.453125 -2.078125 L 1.453125 -0.484375 L 3.40625 -0.484375 L 3.40625 -1.125 C 3.40625 -1.175781 3.4375 -1.203125 3.5 -1.203125 L 3.84375 -1.203125 C 3.90625 -1.203125 3.9375 -1.175781 3.9375 -1.125 L 3.9375 -0.078125 C 3.9375 -0.0234375 3.90625 0 3.84375 0 Z M 3.84375 0 "/></g></g></g><g fill="#ffffff" fill-opacity="1"><g transform="translate(90.320733, 270.050186)"><g><path d="M 3.953125 0 L 0.390625 0 C 0.335938 0 0.3125 -0.0234375 0.3125 -0.078125 L 0.3125 -0.40625 C 0.3125 -0.457031 0.335938 -0.484375 0.390625 -0.484375 L 0.890625 -0.484375 L 0.890625 -4.171875 L 0.390625 -4.171875 C 0.335938 -4.171875 0.3125 -4.195312 0.3125 -4.25 L 0.3125 -4.59375 C 0.3125 -4.644531 0.335938 -4.671875 0.390625 -4.671875 L 1.953125 -4.671875 C 2.003906 -4.671875 2.03125 -4.640625 2.03125 -4.578125 L 2.03125 -4.265625 C 2.03125 -4.203125 2.003906 -4.171875 1.953125 -4.171875 L 1.453125 -4.171875 L 1.453125 -0.484375 L 3.515625 -0.484375 L 3.515625 -1.125 C 3.515625 -1.175781 3.546875 -1.203125 3.609375 -1.203125 L 3.953125 -1.203125 C 4.003906 -1.203125 4.03125 -1.175781 4.03125 -1.125 L 4.03125 -0.078125 C 4.03125 -0.0234375 4.003906 0 3.953125 0 Z M 3.953125 0 "/></g></g></g><g fill="#ffffff" fill-opacity="1"><g transform="translate(95.000781, 270.050186)"><g><path d="M 0.765625 0 L 0.390625 0 C 0.335938 0 0.3125 -0.0234375 0.3125 -0.078125 L 0.3125 -1.59375 C 0.3125 -1.65625 0.335938 -1.6875 0.390625 -1.6875 L 0.8125 -1.6875 C 0.863281 -1.6875 0.890625 -1.65625 0.890625 -1.59375 L 0.890625 -1.46875 C 0.890625 -1.382812 0.9375 -1.269531 1.03125 -1.125 C 1.132812 -0.988281 1.234375 -0.878906 1.328125 -0.796875 C 1.429688 -0.710938 1.566406 -0.640625 1.734375 -0.578125 C 1.898438 -0.515625 2.082031 -0.484375 2.28125 -0.484375 C 2.613281 -0.484375 2.875 -0.550781 3.0625 -0.6875 C 3.25 -0.820312 3.34375 -1.015625 3.34375 -1.265625 C 3.34375 -1.410156 3.285156 -1.53125 3.171875 -1.625 C 3.066406 -1.726562 2.929688 -1.8125 2.765625 -1.875 C 2.597656 -1.9375 2.410156 -1.992188 2.203125 -2.046875 C 1.992188 -2.097656 1.785156 -2.15625 1.578125 -2.21875 C 1.378906 -2.289062 1.195312 -2.375 1.03125 -2.46875 C 0.863281 -2.5625 0.722656 -2.691406 0.609375 -2.859375 C 0.503906 -3.023438 0.453125 -3.21875 0.453125 -3.4375 C 0.453125 -3.800781 0.585938 -4.101562 0.859375 -4.34375 C 1.140625 -4.582031 1.507812 -4.703125 1.96875 -4.703125 C 2.5625 -4.703125 2.992188 -4.53125 3.265625 -4.1875 L 3.25 -4.59375 C 3.25 -4.644531 3.273438 -4.671875 3.328125 -4.671875 L 3.703125 -4.671875 C 3.753906 -4.671875 3.78125 -4.644531 3.78125 -4.59375 L 3.78125 -3.171875 C 3.78125 -3.117188 3.753906 -3.09375 3.703125 -3.09375 L 3.28125 -3.09375 C 3.238281 -3.09375 3.21875 -3.117188 3.21875 -3.171875 L 3.21875 -3.359375 C 3.21875 -3.535156 3.113281 -3.710938 2.90625 -3.890625 C 2.707031 -4.078125 2.414062 -4.171875 2.03125 -4.171875 C 1.75 -4.171875 1.519531 -4.101562 1.34375 -3.96875 C 1.164062 -3.832031 1.078125 -3.65625 1.078125 -3.4375 C 1.078125 -3.289062 1.128906 -3.160156 1.234375 -3.046875 C 1.347656 -2.941406 1.488281 -2.859375 1.65625 -2.796875 C 1.832031 -2.734375 2.023438 -2.671875 2.234375 -2.609375 C 2.441406 -2.554688 2.648438 -2.5 2.859375 -2.4375 C 3.066406 -2.375 3.253906 -2.296875 3.421875 -2.203125 C 3.597656 -2.109375 3.738281 -1.984375 3.84375 -1.828125 C 3.957031 -1.671875 4.015625 -1.484375 4.015625 -1.265625 C 4.015625 -0.890625 3.878906 -0.578125 3.609375 -0.328125 C 3.335938 -0.078125 2.929688 0.046875 2.390625 0.046875 C 1.984375 0.046875 1.648438 -0.03125 1.390625 -0.1875 C 1.128906 -0.351562 0.941406 -0.53125 0.828125 -0.71875 L 0.84375 -0.078125 C 0.84375 -0.0234375 0.816406 0 0.765625 0 Z M 0.765625 0 "/></g></g></g><g fill="#ffffff" fill-opacity="1"><g transform="translate(99.654826, 270.050186)"><g><path d="M 4.84375 -2.34375 C 4.84375 -1.632812 4.628906 -1.054688 4.203125 -0.609375 C 3.773438 -0.171875 3.234375 0.046875 2.578125 0.046875 C 1.929688 0.046875 1.390625 -0.175781 0.953125 -0.625 C 0.523438 -1.070312 0.3125 -1.648438 0.3125 -2.359375 C 0.3125 -3.066406 0.535156 -3.632812 0.984375 -4.0625 C 1.429688 -4.488281 1.960938 -4.703125 2.578125 -4.703125 C 3.203125 -4.703125 3.734375 -4.488281 4.171875 -4.0625 C 4.617188 -3.632812 4.84375 -3.0625 4.84375 -2.34375 Z M 1.421875 -0.96875 C 1.753906 -0.644531 2.140625 -0.484375 2.578125 -0.484375 C 3.023438 -0.484375 3.410156 -0.644531 3.734375 -0.96875 C 4.066406 -1.300781 4.234375 -1.757812 4.234375 -2.34375 C 4.234375 -2.925781 4.0625 -3.378906 3.71875 -3.703125 C 3.382812 -4.023438 3.003906 -4.1875 2.578125 -4.1875 C 2.148438 -4.1875 1.765625 -4.023438 1.421875 -3.703125 C 1.085938 -3.378906 0.921875 -2.925781 0.921875 -2.34375 C 0.921875 -1.757812 1.085938 -1.300781 1.421875 -0.96875 Z M 1.421875 -0.96875 "/></g></g></g><g fill="#ffffff" fill-opacity="1"><g transform="translate(105.134384, 270.050186)"><g><path d="M 4.359375 0 L 4 0 C 3.914062 0 3.847656 -0.015625 3.796875 -0.046875 C 3.753906 -0.078125 3.710938 -0.128906 3.671875 -0.203125 L 1.796875 -3.140625 L 1.46875 -3.6875 L 1.453125 -3.6875 L 1.453125 -0.484375 L 1.953125 -0.484375 C 2.015625 -0.484375 2.046875 -0.457031 2.046875 -0.40625 L 2.046875 -0.078125 C 2.046875 -0.0234375 2.015625 0 1.953125 0 L 0.390625 0 C 0.335938 0 0.3125 -0.0234375 0.3125 -0.078125 L 0.3125 -0.40625 C 0.3125 -0.457031 0.335938 -0.484375 0.390625 -0.484375 L 0.890625 -0.484375 L 0.890625 -4.171875 L 0.390625 -4.171875 C 0.335938 -4.171875 0.3125 -4.195312 0.3125 -4.25 L 0.3125 -4.59375 C 0.3125 -4.644531 0.335938 -4.671875 0.390625 -4.671875 L 1.3125 -4.671875 C 1.4375 -4.671875 1.546875 -4.597656 1.640625 -4.453125 L 3.484375 -1.546875 L 3.859375 -0.921875 L 3.875 -0.921875 L 3.875 -4.171875 L 3.375 -4.171875 C 3.320312 -4.171875 3.296875 -4.195312 3.296875 -4.25 L 3.296875 -4.59375 C 3.296875 -4.644531 3.320312 -4.671875 3.375 -4.671875 L 4.9375 -4.671875 C 4.988281 -4.671875 5.015625 -4.644531 5.015625 -4.59375 L 5.015625 -4.25 C 5.015625 -4.195312 4.988281 -4.171875 4.9375 -4.171875 L 4.4375 -4.171875 L 4.4375 -0.078125 C 4.4375 -0.0234375 4.410156 0 4.359375 0 Z M 4.359375 0 "/></g></g></g><g fill="#ffffff" fill-opacity="1"><g transform="translate(110.789445, 270.050186)"><g/></g></g><g fill="#ffffff" fill-opacity="1"><g transform="translate(113.148969, 270.050186)"><g><path d="M 5.578125 0 L 4.078125 0 C 4.023438 0 4 -0.0234375 4 -0.078125 L 4 -0.40625 C 4 -0.457031 4.023438 -0.484375 4.078125 -0.484375 L 4.515625 -0.484375 L 4.515625 -3.71875 L 3.28125 -0.65625 C 3.226562 -0.53125 3.128906 -0.46875 2.984375 -0.46875 C 2.847656 -0.46875 2.753906 -0.53125 2.703125 -0.65625 L 1.46875 -3.71875 L 1.453125 -3.71875 L 1.453125 -0.484375 L 1.890625 -0.484375 C 1.941406 -0.484375 1.96875 -0.457031 1.96875 -0.40625 L 1.96875 -0.078125 C 1.96875 -0.0234375 1.941406 0 1.890625 0 L 0.390625 0 C 0.335938 0 0.3125 -0.0234375 0.3125 -0.078125 L 0.3125 -0.40625 C 0.3125 -0.457031 0.335938 -0.484375 0.390625 -0.484375 L 0.890625 -0.484375 L 0.890625 -4.171875 L 0.390625 -4.171875 C 0.335938 -4.171875 0.3125 -4.195312 0.3125 -4.25 L 0.3125 -4.59375 C 0.3125 -4.644531 0.335938 -4.671875 0.390625 -4.671875 L 1.390625 -4.671875 C 1.546875 -4.671875 1.648438 -4.597656 1.703125 -4.453125 L 2.671875 -2.109375 L 2.984375 -1.28125 L 3 -1.28125 C 3.125 -1.625 3.222656 -1.894531 3.296875 -2.09375 L 4.28125 -4.453125 C 4.332031 -4.597656 4.4375 -4.671875 4.59375 -4.671875 L 5.578125 -4.671875 C 5.628906 -4.671875 5.65625 -4.644531 5.65625 -4.59375 L 5.65625 -4.25 C 5.65625 -4.195312 5.628906 -4.171875 5.578125 -4.171875 L 5.078125 -4.171875 L 5.078125 -0.484375 L 5.578125 -0.484375 C 5.628906 -0.484375 5.65625 -0.457031 5.65625 -0.40625 L 5.65625 -0.078125 C 5.65625 -0.0234375 5.628906 0 5.578125 0 Z M 5.578125 0 "/></g></g></g><g fill="#ffffff" fill-opacity="1"><g transform="translate(119.447534, 270.050186)"><g><path d="M 4.984375 0 L 3.515625 0 C 3.460938 0 3.4375 -0.0234375 3.4375 -0.078125 L 3.4375 -0.40625 C 3.4375 -0.457031 3.460938 -0.484375 3.515625 -0.484375 L 3.984375 -0.484375 L 3.5625 -1.609375 L 1.734375 -1.609375 L 1.3125 -0.484375 L 1.78125 -0.484375 C 1.832031 -0.484375 1.859375 -0.457031 1.859375 -0.40625 L 1.859375 -0.078125 C 1.859375 -0.0234375 1.832031 0 1.78125 0 L 0.3125 0 C 0.257812 0 0.234375 -0.0234375 0.234375 -0.078125 L 0.234375 -0.40625 C 0.234375 -0.457031 0.257812 -0.484375 0.3125 -0.484375 L 0.75 -0.484375 L 2.140625 -4.171875 L 1.796875 -4.171875 C 1.734375 -4.171875 1.703125 -4.195312 1.703125 -4.25 L 1.703125 -4.59375 C 1.703125 -4.644531 1.734375 -4.671875 1.796875 -4.671875 L 2.671875 -4.671875 C 2.773438 -4.671875 2.851562 -4.644531 2.90625 -4.59375 C 2.96875 -4.550781 3.019531 -4.484375 3.0625 -4.390625 L 4.546875 -0.484375 L 4.984375 -0.484375 C 5.035156 -0.484375 5.0625 -0.457031 5.0625 -0.40625 L 5.0625 -0.078125 C 5.0625 -0.0234375 5.035156 0 4.984375 0 Z M 3.375 -2.0625 L 2.65625 -3.984375 L 2.640625 -3.984375 L 1.90625 -2.0625 Z M 3.375 -2.0625 "/></g></g></g><g fill="#ffffff" fill-opacity="1"><g transform="translate(125.239096, 270.050186)"><g><path d="M 4.359375 0 L 4 0 C 3.914062 0 3.847656 -0.015625 3.796875 -0.046875 C 3.753906 -0.078125 3.710938 -0.128906 3.671875 -0.203125 L 1.796875 -3.140625 L 1.46875 -3.6875 L 1.453125 -3.6875 L 1.453125 -0.484375 L 1.953125 -0.484375 C 2.015625 -0.484375 2.046875 -0.457031 2.046875 -0.40625 L 2.046875 -0.078125 C 2.046875 -0.0234375 2.015625 0 1.953125 0 L 0.390625 0 C 0.335938 0 0.3125 -0.0234375 0.3125 -0.078125 L 0.3125 -0.40625 C 0.3125 -0.457031 0.335938 -0.484375 0.390625 -0.484375 L 0.890625 -0.484375 L 0.890625 -4.171875 L 0.390625 -4.171875 C 0.335938 -4.171875 0.3125 -4.195312 0.3125 -4.25 L 0.3125 -4.59375 C 0.3125 -4.644531 0.335938 -4.671875 0.390625 -4.671875 L 1.3125 -4.671875 C 1.4375 -4.671875 1.546875 -4.597656 1.640625 -4.453125 L 3.484375 -1.546875 L 3.859375 -0.921875 L 3.875 -0.921875 L 3.875 -4.171875 L 3.375 -4.171875 C 3.320312 -4.171875 3.296875 -4.195312 3.296875 -4.25 L 3.296875 -4.59375 C 3.296875 -4.644531 3.320312 -4.671875 3.375 -4.671875 L 4.9375 -4.671875 C 4.988281 -4.671875 5.015625 -4.644531 5.015625 -4.59375 L 5.015625 -4.25 C 5.015625 -4.195312 4.988281 -4.171875 4.9375 -4.171875 L 4.4375 -4.171875 L 4.4375 -0.078125 C 4.4375 -0.0234375 4.410156 0 4.359375 0 Z M 4.359375 0 "/></g></g></g><g fill="#ffffff" fill-opacity="1"><g transform="translate(130.894161, 270.050186)"><g><path d="M 2.21875 0 L 0.359375 0 C 0.304688 0 0.28125 -0.0234375 0.28125 -0.078125 L 0.28125 -0.40625 C 0.28125 -0.457031 0.304688 -0.484375 0.359375 -0.484375 L 0.859375 -0.484375 L 0.859375 -4.171875 L 0.359375 -4.171875 C 0.304688 -4.171875 0.28125 -4.195312 0.28125 -4.25 L 0.28125 -4.59375 C 0.28125 -4.644531 0.304688 -4.671875 0.359375 -4.671875 L 2.109375 -4.671875 C 2.828125 -4.671875 3.398438 -4.460938 3.828125 -4.046875 C 4.253906 -3.628906 4.46875 -3.054688 4.46875 -2.328125 C 4.46875 -1.609375 4.265625 -1.039062 3.859375 -0.625 C 3.453125 -0.207031 2.90625 0 2.21875 0 Z M 1.421875 -0.484375 L 2.0625 -0.484375 C 3.269531 -0.492188 3.875 -1.109375 3.875 -2.328125 C 3.875 -2.910156 3.71875 -3.363281 3.40625 -3.6875 C 3.09375 -4.007812 2.640625 -4.171875 2.046875 -4.171875 L 1.421875 -4.171875 Z M 1.421875 -0.484375 "/></g></g></g><g fill="#ffffff" fill-opacity="1"><g transform="translate(136.029221, 270.050186)"><g><path d="M 3.84375 0 L 0.390625 0 C 0.335938 0 0.3125 -0.0234375 0.3125 -0.078125 L 0.3125 -0.40625 C 0.3125 -0.457031 0.335938 -0.484375 0.390625 -0.484375 L 0.890625 -0.484375 L 0.890625 -4.171875 L 0.390625 -4.171875 C 0.335938 -4.171875 0.3125 -4.195312 0.3125 -4.25 L 0.3125 -4.59375 C 0.3125 -4.644531 0.335938 -4.671875 0.390625 -4.671875 L 3.84375 -4.671875 C 3.90625 -4.671875 3.9375 -4.644531 3.9375 -4.59375 L 3.9375 -3.546875 C 3.9375 -3.484375 3.90625 -3.453125 3.84375 -3.453125 L 3.5 -3.453125 C 3.445312 -3.453125 3.421875 -3.484375 3.421875 -3.546875 L 3.421875 -4.171875 L 1.453125 -4.171875 L 1.453125 -2.5625 L 3.09375 -2.5625 C 3.15625 -2.5625 3.1875 -2.535156 3.1875 -2.484375 L 3.1875 -2.15625 C 3.1875 -2.101562 3.15625 -2.078125 3.09375 -2.078125 L 1.453125 -2.078125 L 1.453125 -0.484375 L 3.40625 -0.484375 L 3.40625 -1.125 C 3.40625 -1.175781 3.4375 -1.203125 3.5 -1.203125 L 3.84375 -1.203125 C 3.90625 -1.203125 3.9375 -1.175781 3.9375 -1.125 L 3.9375 -0.078125 C 3.9375 -0.0234375 3.90625 0 3.84375 0 Z M 3.84375 0 "/></g></g></g><g fill="#ffffff" fill-opacity="1"><g transform="translate(140.598775, 270.050186)"><g><path d="M 3.953125 0 L 0.390625 0 C 0.335938 0 0.3125 -0.0234375 0.3125 -0.078125 L 0.3125 -0.40625 C 0.3125 -0.457031 0.335938 -0.484375 0.390625 -0.484375 L 0.890625 -0.484375 L 0.890625 -4.171875 L 0.390625 -4.171875 C 0.335938 -4.171875 0.3125 -4.195312 0.3125 -4.25 L 0.3125 -4.59375 C 0.3125 -4.644531 0.335938 -4.671875 0.390625 -4.671875 L 1.953125 -4.671875 C 2.003906 -4.671875 2.03125 -4.640625 2.03125 -4.578125 L 2.03125 -4.265625 C 2.03125 -4.203125 2.003906 -4.171875 1.953125 -4.171875 L 1.453125 -4.171875 L 1.453125 -0.484375 L 3.515625 -0.484375 L 3.515625 -1.125 C 3.515625 -1.175781 3.546875 -1.203125 3.609375 -1.203125 L 3.953125 -1.203125 C 4.003906 -1.203125 4.03125 -1.175781 4.03125 -1.125 L 4.03125 -0.078125 C 4.03125 -0.0234375 4.003906 0 3.953125 0 Z M 3.953125 0 "/></g></g></g><g fill="#ffffff" fill-opacity="1"><g transform="translate(145.278826, 270.050186)"><g><path d="M 4.984375 0 L 3.515625 0 C 3.460938 0 3.4375 -0.0234375 3.4375 -0.078125 L 3.4375 -0.40625 C 3.4375 -0.457031 3.460938 -0.484375 3.515625 -0.484375 L 3.984375 -0.484375 L 3.5625 -1.609375 L 1.734375 -1.609375 L 1.3125 -0.484375 L 1.78125 -0.484375 C 1.832031 -0.484375 1.859375 -0.457031 1.859375 -0.40625 L 1.859375 -0.078125 C 1.859375 -0.0234375 1.832031 0 1.78125 0 L 0.3125 0 C 0.257812 0 0.234375 -0.0234375 0.234375 -0.078125 L 0.234375 -0.40625 C 0.234375 -0.457031 0.257812 -0.484375 0.3125 -0.484375 L 0.75 -0.484375 L 2.140625 -4.171875 L 1.796875 -4.171875 C 1.734375 -4.171875 1.703125 -4.195312 1.703125 -4.25 L 1.703125 -4.59375 C 1.703125 -4.644531 1.734375 -4.671875 1.796875 -4.671875 L 2.671875 -4.671875 C 2.773438 -4.671875 2.851562 -4.644531 2.90625 -4.59375 C 2.96875 -4.550781 3.019531 -4.484375 3.0625 -4.390625 L 4.546875 -0.484375 L 4.984375 -0.484375 C 5.035156 -0.484375 5.0625 -0.457031 5.0625 -0.40625 L 5.0625 -0.078125 C 5.0625 -0.0234375 5.035156 0 4.984375 0 Z M 3.375 -2.0625 L 2.65625 -3.984375 L 2.640625 -3.984375 L 1.90625 -2.0625 Z M 3.375 -2.0625 "/></g></g></g></svg>